<svg width="140" height="38" viewBox="0 0 140 38" fill="none" xmlns="http://www.w3.org/2000/svg">
<rect width="140" height="38" rx="4" fill="white"/>
<path d="M66.8208 20.7503C64.4208 20.7503 62.5208 22.5503 62.5208 25.0503C62.5208 27.4503 64.4208 29.3503 66.8208 29.3503C69.2208 29.3503 71.1208 27.5503 71.1208 25.0503C71.1208 22.4503 69.2208 20.7503 66.8208 20.7503ZM66.8208 27.5503C65.5208 27.5503 64.4208 26.4503 64.4208 24.9503C64.4208 23.4503 65.5208 22.3503 66.8208 22.3503C68.1208 22.3503 69.2208 23.3503 69.2208 24.9503C69.2208 26.4503 68.1208 27.5503 66.8208 27.5503ZM57.5208 20.7503C55.1208 20.7503 53.2208 22.5503 53.2208 25.0503C53.2208 27.4503 55.1208 29.3503 57.5208 29.3503C59.9208 29.3503 61.8208 27.5503 61.8208 25.0503C61.8208 22.4503 59.9208 20.7503 57.5208 20.7503ZM57.5208 27.5503C56.2208 27.5503 55.1208 26.4503 55.1208 24.9503C55.1208 23.4503 56.2208 22.3503 57.5208 22.3503C58.8208 22.3503 59.9208 23.3503 59.9208 24.9503C59.9208 26.4503 58.8208 27.5503 57.5208 27.5503ZM46.4208 22.0503V23.8503H50.7208C50.6208 24.8503 50.2208 25.6503 49.7208 26.1503C49.1208 26.7503 48.1208 27.4503 46.4208 27.4503C43.7208 27.4503 41.7208 25.3503 41.7208 22.6503C41.7208 19.9503 43.8208 17.8503 46.4208 17.8503C47.8208 17.8503 48.9208 18.4503 49.7208 19.1503L51.0208 17.8503C49.9208 16.8503 48.5208 16.0503 46.5208 16.0503C42.9208 16.0503 39.8208 19.0503 39.8208 22.6503C39.8208 26.2503 42.9208 29.2503 46.5208 29.2503C48.5208 29.2503 49.9208 28.6503 51.1208 27.3503C52.3208 26.1503 52.7208 24.4503 52.7208 23.1503C52.7208 22.7503 52.7208 22.3503 52.6208 22.0503H46.4208ZM91.8208 23.4503C91.4208 22.4503 90.4208 20.7503 88.2208 20.7503C86.0208 20.7503 84.2208 22.4503 84.2208 25.0503C84.2208 27.4503 86.0208 29.3503 88.4208 29.3503C90.3208 29.3503 91.5208 28.1503 91.9208 27.4503L90.5208 26.4503C90.0208 27.1503 89.4208 27.6503 88.4208 27.6503C87.4208 27.6503 86.8208 27.2503 86.3208 26.3503L92.0208 23.9503L91.8208 23.4503ZM86.0208 24.8503C86.0208 23.2503 87.3208 22.3503 88.2208 22.3503C88.9208 22.3503 89.6208 22.7503 89.8208 23.2503L86.0208 24.8503ZM81.3208 28.9503H83.2208V16.4503H81.3208V28.9503ZM78.3208 21.6503C77.8208 21.1503 77.0208 20.6503 76.0208 20.6503C73.9208 20.6503 71.9208 22.5503 71.9208 24.9503C71.9208 27.3503 73.8208 29.1503 76.0208 29.1503C77.0208 29.1503 77.8208 28.6503 78.2208 28.1503H78.3208V28.7503C78.3208 30.3503 77.4208 31.2503 76.0208 31.2503C74.9208 31.2503 74.1208 30.4503 73.9208 29.7503L72.3208 30.4503C72.8208 31.5503 74.0208 32.9503 76.1208 32.9503C78.3208 32.9503 80.1208 31.6503 80.1208 28.5503V20.9503H78.3208V21.6503ZM76.1208 27.5503C74.8208 27.5503 73.7208 26.4503 73.7208 24.9503C73.7208 23.4503 74.8208 22.3503 76.1208 22.3503C77.4208 22.3503 78.4208 23.4503 78.4208 24.9503C78.4208 26.4503 77.4208 27.5503 76.1208 27.5503ZM100.521 16.4503H96.0208V28.9503H97.9208V24.2503H100.521C102.621 24.2503 104.621 22.7503 104.621 20.3503C104.621 17.9503 102.621 16.4503 100.521 16.4503ZM100.621 22.4503H97.9208V18.1503H100.621C102.021 18.1503 102.821 19.3503 102.821 20.2503C102.721 21.3503 101.921 22.4503 100.621 22.4503ZM112.121 20.6503C110.721 20.6503 109.321 21.2503 108.821 22.5503L110.521 23.2503C110.921 22.5503 111.521 22.3503 112.221 22.3503C113.221 22.3503 114.121 22.9503 114.221 23.9503V24.0503C113.921 23.8503 113.121 23.5503 112.321 23.5503C110.521 23.5503 108.721 24.5503 108.721 26.3503C108.721 28.0503 110.221 29.1503 111.821 29.1503C113.121 29.1503 113.721 28.5503 114.221 27.9503H114.321V28.9503H116.121V24.1503C115.921 21.9503 114.221 20.6503 112.121 20.6503ZM111.921 27.5503C111.321 27.5503 110.421 27.2503 110.421 26.4503C110.421 25.4503 111.521 25.1503 112.421 25.1503C113.221 25.1503 113.621 25.3503 114.121 25.5503C113.921 26.7503 112.921 27.5503 111.921 27.5503ZM122.421 20.9503L120.321 26.3503H120.221L118.021 20.9503H116.021L119.321 28.5503L117.421 32.7503H119.321L124.421 20.9503H122.421ZM105.621 28.9503H107.521V16.4503H105.621V28.9503Z" fill="black"/>
<path d="M9.40039 6.4502C9.10039 6.7502 8.90039 7.25019 8.90039 7.85019V29.9502C8.90039 30.5502 9.10039 31.0502 9.40039 31.3502L9.50039 31.4502L21.9004 19.0502V18.9502V18.8502L9.40039 6.4502Z" fill="url(#paint0_linear_503_4198)"/>
<path d="M25.9999 23.25L21.8999 19.15V18.95V18.85L25.9999 14.75L26.0999 14.85L30.9999 17.65C32.3999 18.45 32.3999 19.75 30.9999 20.55L25.9999 23.25Z" fill="url(#paint1_linear_503_4198)"/>
<path d="M26.1004 23.1502L21.9004 18.9502L9.40039 31.4502C9.90039 31.9502 10.6004 31.9502 11.5004 31.5502L26.1004 23.1502Z" fill="url(#paint2_linear_503_4198)"/>
<path d="M26.1004 14.7503L11.5004 6.45031C10.6004 5.95031 9.90039 6.05031 9.40039 6.55031L21.9004 18.9503L26.1004 14.7503Z" fill="url(#paint3_linear_503_4198)"/>
<path opacity="0.2" d="M26.0004 23.0498L11.5004 31.2498C10.7004 31.7498 10.0004 31.6498 9.50039 31.2498L9.40039 31.3498L9.50039 31.4498C10.0004 31.8498 10.7004 31.9498 11.5004 31.4498L26.0004 23.0498Z" fill="black"/>
<path opacity="0.12" d="M9.40049 31.2491C9.10049 30.9491 9.00049 30.4491 9.00049 29.8491V29.9491C9.00049 30.5491 9.20049 31.0491 9.50049 31.3491V31.2491H9.40049Z" fill="black"/>
<path opacity="0.12" d="M31 20.2502L26 23.0502L26.1 23.1502L31 20.3502C31.7 19.9502 32 19.4502 32 18.9502C32 19.4502 31.6 19.8502 31 20.2502Z" fill="black"/>
<path opacity="0.25" d="M11.5 6.55008L31 17.6501C31.6 18.0501 32 18.4501 32 18.9501C32 18.4501 31.7 17.9501 31 17.5501L11.5 6.45007C10.1 5.65007 9 6.35007 9 7.95007V8.05008C9 6.45008 10.1 5.75008 11.5 6.55008Z" fill="white"/>
<path d="M44.8594 11.2041C44.6667 11.4801 44.3971 11.6872 44.0508 11.8252C43.707 11.9606 43.306 12.0283 42.8477 12.0283C42.3841 12.0283 41.9727 11.9202 41.6133 11.7041C41.2539 11.4854 40.9753 11.1755 40.7773 10.7744C40.582 10.3734 40.4818 9.90853 40.4766 9.37988V8.88379C40.4766 8.02702 40.6758 7.36296 41.0742 6.8916C41.4753 6.42025 42.0378 6.18457 42.7617 6.18457C43.3555 6.18457 43.8333 6.33691 44.1953 6.6416C44.5573 6.94368 44.7786 7.37337 44.8594 7.93066H44.1094C43.9688 7.17806 43.5208 6.80176 42.7656 6.80176C42.263 6.80176 41.8815 6.97884 41.6211 7.33301C41.3633 7.68457 41.2331 8.19499 41.2305 8.86426V9.3291C41.2305 9.96712 41.3763 10.4749 41.668 10.8525C41.9596 11.2275 42.3542 11.415 42.8516 11.415C43.1328 11.415 43.3789 11.3838 43.5898 11.3213C43.8008 11.2588 43.9753 11.1533 44.1133 11.0049V9.72754H42.7969V9.11816H44.8594V11.2041Z" fill="black"/>
<path d="M49.7281 9.32129H47.2633V11.3369H50.1266V11.9502H46.5133V6.2627H50.0875V6.87988H47.2633V8.70801H49.7281V9.32129Z" fill="black"/>
<path d="M55.468 6.87988H53.6398V11.9502H52.8938V6.87988H51.0695V6.2627H55.468V6.87988Z" fill="black"/>
<path d="M59.7445 11.9502H58.9945V6.2627H59.7445V11.9502Z" fill="black"/>
<path d="M65.332 6.87988H63.5039V11.9502H62.7578V6.87988H60.9336V6.2627H65.332V6.87988Z" fill="black"/>
<path d="M73.1789 9.29004C73.1789 9.84733 73.0852 10.3343 72.8977 10.751C72.7102 11.165 72.4445 11.4814 72.1008 11.7002C71.757 11.9189 71.356 12.0283 70.8977 12.0283C70.4497 12.0283 70.0526 11.9189 69.7062 11.7002C69.3599 11.4788 69.0904 11.165 68.8977 10.7588C68.7076 10.3499 68.6099 9.87728 68.6047 9.34082V8.93066C68.6047 8.38379 68.6997 7.90072 68.8898 7.48145C69.0799 7.06217 69.3482 6.74186 69.6945 6.52051C70.0435 6.29655 70.4419 6.18457 70.8898 6.18457C71.3456 6.18457 71.7466 6.29525 72.093 6.5166C72.4419 6.73535 72.7102 7.05436 72.8977 7.47363C73.0852 7.8903 73.1789 8.37598 73.1789 8.93066V9.29004ZM72.4328 8.92285C72.4328 8.24837 72.2974 7.73145 72.0266 7.37207C71.7557 7.01009 71.3768 6.8291 70.8898 6.8291C70.4159 6.8291 70.0422 7.01009 69.7687 7.37207C69.4979 7.73145 69.3586 8.23145 69.3508 8.87207V9.29004C69.3508 9.94368 69.4875 10.458 69.7609 10.833C70.037 11.2054 70.4159 11.3916 70.8977 11.3916C71.382 11.3916 71.757 11.2158 72.0227 10.8643C72.2883 10.5101 72.425 10.0036 72.4328 9.34473V8.92285Z" fill="black"/>
<path d="M79.075 11.9502H78.3211L75.4578 7.56738V11.9502H74.7039V6.2627H75.4578L78.3289 10.665V6.2627H79.075V11.9502Z" fill="black"/>
<defs>
<linearGradient id="paint0_linear_503_4198" x1="20.8001" y1="7.6599" x2="4.01769" y2="24.4423" gradientUnits="userSpaceOnUse">
<stop stop-color="#00A0FF"/>
<stop offset="0.00657445" stop-color="#00A1FF"/>
<stop offset="0.2601" stop-color="#00BEFF"/>
<stop offset="0.5122" stop-color="#00D2FF"/>
<stop offset="0.7604" stop-color="#00DFFF"/>
<stop offset="1" stop-color="#00E3FF"/>
</linearGradient>
<linearGradient id="paint1_linear_503_4198" x1="32.8343" y1="18.9514" x2="8.6374" y2="18.9514" gradientUnits="userSpaceOnUse">
<stop stop-color="#FFE000"/>
<stop offset="0.4087" stop-color="#FFBD00"/>
<stop offset="0.7754" stop-color="#FFA500"/>
<stop offset="1" stop-color="#FF9C00"/>
</linearGradient>
<linearGradient id="paint2_linear_503_4198" x1="23.8274" y1="21.2463" x2="1.06909" y2="44.0046" gradientUnits="userSpaceOnUse">
<stop stop-color="#FF3A44"/>
<stop offset="1" stop-color="#C31162"/>
</linearGradient>
<linearGradient id="paint3_linear_503_4198" x1="6.29769" y1="-0.873492" x2="16.4603" y2="9.28901" gradientUnits="userSpaceOnUse">
<stop stop-color="#32A071"/>
<stop offset="0.0685" stop-color="#2DA771"/>
<stop offset="0.4762" stop-color="#15CF74"/>
<stop offset="0.8009" stop-color="#06E775"/>
<stop offset="1" stop-color="#00F076"/>
</linearGradient>
</defs>
</svg>
