<svg width="140" height="38" viewBox="0 0 140 38" fill="none" xmlns="http://www.w3.org/2000/svg">
<rect width="140" height="38" rx="4" fill="white"/>
<path d="M30.7072 18.7288C30.6767 15.3437 33.4846 13.6968 33.613 13.6202C32.0228 11.3064 29.558 10.9902 28.6919 10.965C26.6218 10.7476 24.6137 12.2012 23.5592 12.2012C22.4836 12.2012 20.8598 10.986 19.1096 11.0217C16.8574 11.0564 14.7505 12.3577 13.5949 14.3785C11.2101 18.4987 12.9887 24.5537 15.2735 27.8841C16.4164 29.5163 17.752 31.3364 19.5 31.2724C21.2102 31.203 21.849 30.1853 23.9128 30.1853C25.9577 30.1853 26.5576 31.2724 28.3404 31.2314C30.1758 31.203 31.3313 29.593 32.4343 27.9471C33.7551 26.0787 34.2855 24.2365 34.3065 24.142C34.2644 24.1272 30.743 22.785 30.7072 18.7288ZM27.3395 8.77412C28.2593 7.62616 28.8887 6.06438 28.714 4.47949C27.3827 4.53831 25.7177 5.3985 24.759 6.52125C23.9107 7.51063 23.153 9.13227 23.3487 10.6573C24.8442 10.7686 26.3797 9.90423 27.3395 8.77412Z" fill="black"/>
<path d="M55.4782 30.9435H53.0882L51.779 26.8379H47.2283L45.9812 30.9435H43.6543L48.1639 16.9662H50.9486L55.4782 30.9435ZM51.3843 25.1154L50.2003 21.4657C50.0751 21.0928 49.8394 20.2148 49.4942 18.8326H49.4521C49.3132 19.4271 49.0911 20.3051 48.7869 21.4657L47.623 25.1154H51.3843ZM67.0527 25.7803C67.0527 27.4943 66.5865 28.8492 65.653 29.8438C64.8174 30.7292 63.7787 31.1714 62.54 31.1714C61.2023 31.1714 60.2404 30.6956 59.6563 29.742V35.0302H57.4126V24.1775C57.4126 23.101 57.3842 21.9971 57.3294 20.8649H59.3027L59.428 22.4624H59.4701C60.2183 21.2588 61.3539 20.6569 62.8778 20.6569C64.0691 20.6569 65.0637 21.1264 65.8593 22.0664C66.6539 23.0085 67.0527 24.2458 67.0527 25.7803ZM64.7669 25.8622C64.7669 24.8812 64.5459 24.0725 64.1018 23.435C63.6166 22.7722 62.9651 22.4403 62.1485 22.4403C61.5949 22.4403 61.0918 22.6252 60.6425 22.9896C60.192 23.3572 59.8973 23.8372 59.7595 24.4317C59.6979 24.654 59.663 24.8828 59.6553 25.1133V26.7948C59.6553 27.5269 59.8805 28.1455 60.3309 28.6517C60.7814 29.1559 61.3665 29.409 62.0864 29.409C62.9315 29.409 63.5892 29.0824 64.0597 28.4343C64.5311 27.7842 64.7669 26.9272 64.7669 25.8622ZM78.6683 25.7803C78.6683 27.4943 78.2021 28.8492 77.2686 29.8438C76.4319 30.7292 75.3942 31.1714 74.1545 31.1714C72.8168 31.1714 71.8549 30.6956 71.2708 29.742V35.0302H69.0271V24.1775C69.0271 23.101 68.9987 21.9971 68.9439 20.8649H70.9172L71.0425 22.4624H71.0846C71.8318 21.2588 72.9673 20.6569 74.4923 20.6569C75.6826 20.6569 76.6771 21.1264 77.4749 22.0664C78.2684 23.0085 78.6683 24.2458 78.6683 25.7803ZM76.3814 25.8622C76.3814 24.8812 76.1593 24.0725 75.7152 23.435C75.23 22.7722 74.5807 22.4403 73.764 22.4403C73.2105 22.4403 72.7074 22.6252 72.2559 22.9896C71.8055 23.3572 71.5118 23.8372 71.374 24.4317C71.3056 24.709 71.2687 24.9348 71.2687 25.1133V26.7948C71.2687 27.5269 71.495 28.1455 71.9433 28.6517C72.3938 29.1548 72.9789 29.409 73.7009 29.409C74.547 29.409 75.2048 29.0824 75.6742 28.4343C76.1457 27.7842 76.3814 26.9272 76.3814 25.8622ZM91.6552 27.0228C91.6552 28.2127 91.2384 29.18 90.4101 29.9268C89.4988 30.7418 88.2264 31.1504 86.5951 31.1504C85.0881 31.1504 83.8799 30.8605 82.9685 30.2797L83.4873 28.4133C84.4713 28.9952 85.5522 29.2851 86.7288 29.2851C87.5749 29.2851 88.2327 29.0939 88.7021 28.7148C89.1725 28.3346 89.4103 27.8262 89.4103 27.1918C89.4103 26.6236 89.2135 26.1479 88.8273 25.7603C88.439 25.3738 87.797 25.0135 86.8951 24.6827C84.4429 23.77 83.2158 22.4351 83.2158 20.679C83.2158 19.5321 83.6494 18.5931 84.5145 17.859C85.3796 17.1259 86.5267 16.7593 87.9538 16.7593C89.2283 16.7593 90.2902 16.9809 91.1332 17.4231L90.5701 19.2485C89.7766 18.82 88.881 18.6057 87.8791 18.6057C87.0877 18.6057 86.4667 18.8 86.0226 19.1865C85.649 19.5321 85.4596 19.9533 85.4596 20.4532C85.4596 21.0046 85.6753 21.4625 86.1047 21.8217C86.4772 22.1526 87.1571 22.5128 88.1401 22.8993C89.3461 23.3845 90.2323 23.9496 90.7995 24.5987C91.371 25.2478 91.6552 26.0575 91.6552 27.0228ZM99.0926 22.5454H96.6194V27.4387C96.6194 28.6833 97.0551 29.304 97.9286 29.304C98.3296 29.304 98.6622 29.2704 98.9253 29.2L98.9874 30.9004C98.5454 31.0653 97.9634 31.1483 97.2425 31.1483C96.3563 31.1483 95.6638 30.8784 95.1639 30.3385C94.6661 29.7987 94.4157 28.8944 94.4157 27.6214V22.5412H92.9423V20.8607H94.4157V19.0153L96.6194 18.3516V20.8607H99.0926V22.5454ZM110.229 25.8212C110.229 27.3704 109.785 28.6423 108.899 29.6369C107.972 30.661 106.738 31.1714 105.201 31.1714C103.717 31.1714 102.537 30.6809 101.657 29.701C100.778 28.719 100.338 27.4817 100.338 25.9893C100.338 24.4275 100.792 23.1482 101.698 22.1536C102.607 21.1579 103.83 20.6601 105.367 20.6601C106.849 20.6601 108.039 21.1516 108.94 22.1326C109.801 23.0842 110.229 24.313 110.229 25.8212ZM107.903 25.8727C107.903 24.9495 107.703 24.1576 107.303 23.4948C106.832 22.6945 106.159 22.2943 105.286 22.2943C104.387 22.2943 103.698 22.6945 103.229 23.4948C102.827 24.1576 102.627 24.9631 102.627 25.9147C102.627 26.839 102.827 27.633 103.229 28.2936C103.714 29.0939 104.39 29.4941 105.267 29.4941C106.125 29.4941 106.797 29.0855 107.284 28.2736C107.696 27.5952 107.903 26.798 107.903 25.8727ZM117.526 22.8342C117.292 22.7922 117.056 22.7714 116.819 22.7722C116.029 22.7722 115.419 23.0684 114.989 23.665C114.617 24.1901 114.43 24.8539 114.43 25.6553V30.9435H112.186V24.0389C112.188 22.9809 112.166 21.923 112.121 20.866H114.075L114.157 22.7943H114.219C114.457 22.1316 114.829 21.597 115.341 21.1968C115.809 20.8471 116.378 20.6578 116.963 20.6569C117.17 20.6569 117.357 20.6717 117.524 20.6979L117.526 22.8342ZM127.561 25.4274C127.566 25.7678 127.539 26.1079 127.478 26.443H120.747C120.772 27.4387 121.099 28.2012 121.724 28.7263C122.291 29.1947 123.025 29.43 123.926 29.43C124.922 29.43 125.831 29.2725 126.649 28.9542L127.001 30.5076C126.045 30.9235 124.917 31.1304 123.615 31.1304C122.049 31.1304 120.82 30.6704 119.925 29.7525C119.033 28.8335 118.586 27.5983 118.586 26.0512C118.586 24.5325 119.001 23.2669 119.834 22.2576C120.705 21.18 121.883 20.6412 123.365 20.6412C124.82 20.6412 125.922 21.18 126.67 22.2576C127.263 23.1115 127.561 24.1702 127.561 25.4274ZM125.421 24.8466C125.437 24.1817 125.289 23.6093 124.985 23.1251C124.597 22.5013 123.999 22.1904 123.198 22.1904C122.465 22.1904 121.867 22.4939 121.412 23.1031C121.039 23.5873 120.817 24.1691 120.748 24.8445L125.421 24.8466Z" fill="black"/>
<path d="M45.7954 5.60889V11.9502H48.085C49.9746 11.9502 51.0688 10.7812 51.0688 8.76416C51.0688 6.76904 49.9658 5.60889 48.085 5.60889H45.7954ZM46.7798 6.45703H47.9751C49.2891 6.45703 50.0669 7.31396 50.0669 8.77734C50.0669 10.2539 49.3022 11.1021 47.9751 11.1021H46.7798V6.45703Z" fill="black"/>
<path d="M54.4964 12.0425C55.8939 12.0425 56.7508 11.1064 56.7508 9.56396C56.7508 8.02148 55.8895 7.08545 54.4964 7.08545C53.0989 7.08545 52.2376 8.02588 52.2376 9.56396C52.2376 11.1064 53.0946 12.0425 54.4964 12.0425ZM54.4964 11.2383C53.6746 11.2383 53.2132 10.6274 53.2132 9.56396C53.2132 8.50049 53.6746 7.88525 54.4964 7.88525C55.3138 7.88525 55.7796 8.50049 55.7796 9.56396C55.7796 10.623 55.3138 11.2383 54.4964 11.2383Z" fill="black"/>
<path d="M64.1159 7.17773H63.171L62.3185 10.8604H62.2438L61.2594 7.17773H60.3541L59.3698 10.8604H59.2995L58.4425 7.17773H57.4845L58.8029 11.9502H59.7741L60.7584 8.39062H60.8331L61.8219 11.9502H62.8019L64.1159 7.17773Z" fill="black"/>
<path d="M65.2714 11.9502H66.2163V9.15088C66.2163 8.38184 66.6601 7.90723 67.3588 7.90723C68.0576 7.90723 68.3916 8.29395 68.3916 9.08496V11.9502H69.3364V8.86084C69.3364 7.72266 68.7475 7.08545 67.6796 7.08545C66.9589 7.08545 66.4843 7.40625 66.2514 7.93359H66.1811V7.17773H65.2714V11.9502Z" fill="black"/>
<path d="M70.8919 11.9502H71.8367V5.30566H70.8919V11.9502Z" fill="black"/>
<path d="M75.4576 12.0425C76.8551 12.0425 77.712 11.1064 77.712 9.56396C77.712 8.02148 76.8507 7.08545 75.4576 7.08545C74.0602 7.08545 73.1988 8.02588 73.1988 9.56396C73.1988 11.1064 74.0558 12.0425 75.4576 12.0425ZM75.4576 11.2383C74.6358 11.2383 74.1744 10.6274 74.1744 9.56396C74.1744 8.50049 74.6358 7.88525 75.4576 7.88525C76.275 7.88525 76.7408 8.50049 76.7408 9.56396C76.7408 10.623 76.275 11.2383 75.4576 11.2383Z" fill="black"/>
<path d="M80.353 12.0293C80.9814 12.0293 81.5043 11.7568 81.79 11.2734H81.8647V11.9502H82.7743V8.68506C82.7743 7.68311 82.0976 7.08545 80.8979 7.08545C79.8124 7.08545 79.039 7.6084 78.9423 8.4126H79.8564C79.9618 8.06543 80.3266 7.86768 80.8539 7.86768C81.4999 7.86768 81.8339 8.16211 81.8339 8.68506V9.10254L80.5375 9.18164C79.3993 9.25195 78.7577 9.74854 78.7577 10.6055C78.7577 11.4756 79.4301 12.0293 80.353 12.0293ZM80.5947 11.269C80.0805 11.269 79.707 11.0098 79.707 10.5659C79.707 10.1309 80.0058 9.89795 80.665 9.854L81.8339 9.7749V10.188C81.8339 10.8032 81.3066 11.269 80.5947 11.269Z" fill="black"/>
<path d="M86.0481 12.0293C86.7073 12.0293 87.2654 11.7173 87.551 11.1943H87.6257V11.9502H88.531V5.30566H87.5862V7.93359H87.5159C87.2566 7.41064 86.7029 7.09424 86.0481 7.09424C84.8396 7.09424 84.0618 8.05664 84.0618 9.55957C84.0618 11.0713 84.8308 12.0293 86.0481 12.0293ZM86.3162 7.90283C87.1072 7.90283 87.6037 8.54443 87.6037 9.56396C87.6037 10.5923 87.1116 11.2207 86.3162 11.2207C85.5163 11.2207 85.0373 10.6011 85.0373 9.56396C85.0373 8.53125 85.5207 7.90283 86.3162 7.90283Z" fill="black"/>
<path d="M94.7929 12.0425C96.1903 12.0425 97.0472 11.1064 97.0472 9.56396C97.0472 8.02148 96.1859 7.08545 94.7929 7.08545C93.3954 7.08545 92.5341 8.02588 92.5341 9.56396C92.5341 11.1064 93.391 12.0425 94.7929 12.0425ZM94.7929 11.2383C93.9711 11.2383 93.5096 10.6274 93.5096 9.56396C93.5096 8.50049 93.9711 7.88525 94.7929 7.88525C95.6102 7.88525 96.0761 8.50049 96.0761 9.56396C96.0761 10.623 95.6102 11.2383 94.7929 11.2383Z" fill="black"/>
<path d="M98.3654 11.9502H99.3103V9.15088C99.3103 8.38184 99.7541 7.90723 100.453 7.90723C101.152 7.90723 101.486 8.29395 101.486 9.08496V11.9502H102.43V8.86084C102.43 7.72266 101.842 7.08545 100.774 7.08545C100.053 7.08545 99.5783 7.40625 99.3454 7.93359H99.2751V7.17773H98.3654V11.9502Z" fill="black"/>
<path d="M106.917 5.97363V7.19092H106.157V7.94678H106.917V10.6934C106.917 11.6118 107.334 11.981 108.385 11.981C108.569 11.981 108.745 11.959 108.899 11.9326V11.1812C108.767 11.1943 108.683 11.2031 108.538 11.2031C108.068 11.2031 107.862 10.979 107.862 10.4648V7.94678H108.899V7.19092H107.862V5.97363H106.917Z" fill="black"/>
<path d="M110.235 11.9502H111.179V9.15527C111.179 8.4082 111.61 7.91162 112.383 7.91162C113.051 7.91162 113.407 8.30273 113.407 9.08936V11.9502H114.352V8.86523C114.352 7.73584 113.724 7.08984 112.704 7.08984C111.984 7.08984 111.478 7.40625 111.245 7.93799H111.171V5.30566H110.235V11.9502Z" fill="black"/>
<path d="M119.001 10.6714C118.826 11.0581 118.435 11.269 117.863 11.269C117.107 11.269 116.62 10.7241 116.589 9.8584V9.81445H119.968V9.48926C119.968 7.99512 119.164 7.08545 117.832 7.08545C116.483 7.08545 115.626 8.05664 115.626 9.57275C115.626 11.0977 116.466 12.0425 117.837 12.0425C118.931 12.0425 119.705 11.5151 119.911 10.6714H119.001ZM117.828 7.85449C118.527 7.85449 118.984 8.35986 119.006 9.1333H116.589C116.642 8.36426 117.129 7.85449 117.828 7.85449Z" fill="black"/>
</svg>
