<svg width="30" height="26" viewBox="0 0 30 26" fill="none" xmlns="http://www.w3.org/2000/svg">
<rect width="30" height="26" rx="4.25531" fill="url(#paint0_radial_107_3180)"/>
<rect width="30" height="26" rx="4.25531" fill="url(#paint1_radial_107_3180)"/>
<path d="M15.0008 3.90039C12.5566 3.90039 12.2498 3.9112 11.2898 3.95537C10.3317 3.99973 9.67766 4.15311 9.10541 4.37814C8.51346 4.61057 8.01133 4.92149 7.51108 5.42748C7.01045 5.93329 6.70294 6.441 6.47232 7.03932C6.24919 7.61812 6.09731 8.27958 6.05419 9.24797C6.01125 10.2186 6 10.529 6 13.0004C6 15.4718 6.01088 15.781 6.05438 16.7517C6.09844 17.7204 6.25013 18.3817 6.4725 18.9603C6.70257 19.5588 7.01007 20.0665 7.51052 20.5723C8.01058 21.0785 8.51271 21.3902 9.10428 21.6226C9.67691 21.8477 10.3311 22.001 11.2891 22.0454C12.2491 22.0896 12.5556 22.1004 14.9997 22.1004C17.4442 22.1004 17.75 22.0896 18.71 22.0454C19.6681 22.001 20.3229 21.8477 20.8955 21.6226C21.4873 21.3902 21.9887 21.0785 22.4887 20.5723C22.9894 20.0665 23.2969 19.5588 23.5275 18.9605C23.7487 18.3817 23.9006 17.7203 23.9456 16.7519C23.9887 15.7812 24 15.4718 24 13.0004C24 10.529 23.9887 10.2188 23.9456 9.24816C23.9006 8.27939 23.7487 7.61812 23.5275 7.03951C23.2969 6.441 22.9894 5.93329 22.4887 5.42748C21.9881 4.9213 21.4875 4.61038 20.895 4.37814C20.3212 4.15311 19.6668 3.99973 18.7087 3.95537C17.7487 3.9112 17.4431 3.90039 14.998 3.90039H15.0008ZM14.1935 5.54029C14.4331 5.53991 14.7005 5.54029 15.0008 5.54029C17.4039 5.54029 17.6887 5.54901 18.6376 5.59261C19.5151 5.63318 19.9914 5.78144 20.3086 5.90599C20.7287 6.07093 21.0281 6.2681 21.3429 6.5866C21.6579 6.9051 21.8529 7.20843 22.0164 7.6331C22.1396 7.95349 22.2864 8.43503 22.3264 9.32228C22.3695 10.2816 22.3789 10.5697 22.3789 12.9983C22.3789 15.4269 22.3695 15.715 22.3264 16.6743C22.2862 17.5616 22.1396 18.0431 22.0164 18.3635C21.8533 18.7882 21.6579 19.0906 21.3429 19.4089C21.0279 19.7274 20.7288 19.9245 20.3086 20.0895C19.9918 20.2146 19.5151 20.3625 18.6376 20.403C17.6889 20.4467 17.4039 20.4561 15.0008 20.4561C12.5976 20.4561 12.3128 20.4467 11.3641 20.403C10.4865 20.3621 10.0103 20.2138 9.69285 20.0893C9.27285 19.9244 8.97284 19.7272 8.65784 19.4087C8.34284 19.0902 8.14783 18.7876 7.98433 18.3628C7.86114 18.0424 7.71433 17.5608 7.67439 16.6736C7.63127 15.7143 7.62264 15.4261 7.62264 12.996C7.62264 10.5659 7.63127 10.2793 7.67439 9.32001C7.71452 8.43276 7.86114 7.95122 7.98433 7.63044C8.14746 7.20578 8.34284 6.90244 8.65784 6.58394C8.97284 6.26544 9.27285 6.06828 9.69285 5.90296C10.0101 5.77783 10.4865 5.62996 11.3641 5.5892C12.1943 5.55128 12.5161 5.53991 14.1935 5.53801V5.54029ZM19.805 7.05127C19.2088 7.05127 18.725 7.53982 18.725 8.14289C18.725 8.74576 19.2088 9.23489 19.805 9.23489C20.4013 9.23489 20.885 8.74576 20.885 8.14289C20.885 7.54001 20.4013 7.05089 19.805 7.05089V7.05127ZM15.0008 8.32716C12.4484 8.32716 10.3789 10.4196 10.3789 13.0004C10.3789 15.5812 12.4484 17.6727 15.0008 17.6727C17.5533 17.6727 19.622 15.5812 19.622 13.0004C19.622 10.4196 17.5531 8.32716 15.0007 8.32716H15.0008ZM15.0008 9.96706C16.6576 9.96706 18.0009 11.325 18.0009 13.0004C18.0009 14.6755 16.6576 16.0337 15.0008 16.0337C13.3439 16.0337 12.0008 14.6755 12.0008 13.0004C12.0008 11.325 13.3439 9.96706 15.0008 9.96706Z" fill="white"/>
<defs>
<radialGradient id="paint0_radial_107_3180" cx="0" cy="0" r="1" gradientUnits="userSpaceOnUse" gradientTransform="translate(7.96879 28.0025) rotate(-90) scale(25.7679 27.6533)">
<stop stop-color="#FFDD55"/>
<stop offset="0.1" stop-color="#FFDD55"/>
<stop offset="0.5" stop-color="#FF543E"/>
<stop offset="1" stop-color="#C837AB"/>
</radialGradient>
<radialGradient id="paint1_radial_107_3180" cx="0" cy="0" r="1" gradientUnits="userSpaceOnUse" gradientTransform="translate(-5.02516 1.873) rotate(76.9946) scale(11.5917 54.4373)">
<stop stop-color="#3771C8"/>
<stop offset="0.128" stop-color="#3771C8"/>
<stop offset="1" stop-color="#6600FF" stop-opacity="0"/>
</radialGradient>
</defs>
</svg>
