<svg width="73" height="41" viewBox="0 0 73 41" fill="none" xmlns="http://www.w3.org/2000/svg">
<path d="M4.21662 4.19431H2.11946V2.09715H4.21662V4.19431ZM6.31377 2.09715H4.21662V0H6.31377V2.09715ZM4.21662 18.0043H2.11946V15.9071H4.21662V18.0043ZM6.31377 20.1014H4.21662V18.0043H6.31377V20.1014ZM2.11946 15.9071H0V4.19431H2.11946V15.9071Z" fill="black"/>
<path d="M17.8499 2.09715V4.19431H9.46124V2.09715H17.8499ZM17.8499 6.29146V4.19431H19.947V6.29146H17.8499ZM19.947 15.9071H17.8499V13.81H19.947V15.9071ZM9.46124 18.0043V15.9071H17.8499V18.0043H9.46124ZM7.36409 4.19431H9.46124V15.9071H7.36409V4.19431Z" fill="black"/>
<path d="M25.1944 4.19431H23.0973V2.09715H25.1944V4.19431ZM23.0973 2.09715H21.0001V0H23.0973V2.09715ZM25.1944 18.0043H23.0973V15.9071H25.1944V18.0043ZM23.0973 20.1014H21.0001V18.0043H23.0973V20.1014ZM27.3139 15.9071H25.1944V4.19431H27.3139V15.9071Z" fill="black"/>
<path d="M30.8072 16.1493H72.9909V17.8997H30.8072V16.1493Z" fill="black"/>
<path d="M10.4858 23.6968V25.794H2.09715V23.6968H10.4858ZM10.4858 27.8911V25.794H12.5829V27.8911H10.4858ZM12.5829 37.5068H10.4858V35.4096H12.5829V37.5068ZM2.09715 39.6039V37.5068H10.4858V39.6039H2.09715ZM0 25.794H2.09715V37.5068H0V25.794Z" fill="black"/>
<path d="M17.6885 23.6012V33.4926C17.6885 34.6546 17.9063 35.6205 18.3421 36.3903C18.9884 37.5523 20.0778 38.1333 21.6102 38.1333C23.4476 38.1333 24.6967 37.5051 25.3576 36.2487C25.7134 35.566 25.8914 34.6473 25.8914 33.4926V23.6012H28.0919V32.5884C28.0919 34.5566 27.8268 36.0708 27.2966 37.1311C26.3235 39.0629 24.4861 40.0288 21.7845 40.0288C19.0828 40.0288 17.2491 39.0629 16.2832 37.1311C15.753 36.0708 15.4879 34.5566 15.4879 32.5884V23.6012H17.6885Z" fill="black"/>
<path d="M41.2929 39.6039V36.2797H43.3901V39.6039H41.2929ZM35.0015 32.0854V34.1826H32.9043V39.6039H30.8072V23.6968H32.9043V32.0854H35.0015ZM35.0015 32.0854V29.9883H37.0986V32.0854H35.0015ZM37.0986 29.9883V27.8911H39.1958V29.9883H37.0986ZM39.1958 27.8911V25.794H41.2929V27.8911H39.1958ZM41.2929 25.794V23.6968H43.3901V25.794H41.2929ZM37.0986 34.1826V32.0854H39.1958V34.1826H37.0986ZM39.1958 36.2797V34.1826H41.2929V36.2797H39.1958Z" fill="black"/>
<path d="M46.3496 23.6012H58.0166V25.5621H48.4629V30.4206H57.2977V32.2725H48.4629V37.6975H58.18V39.6039H46.3496V23.6012Z" fill="black"/>
<path d="M70.9028 25.794H73V30.6129H70.9028V25.794ZM70.9028 30.6129V32.7101H73V39.6039H70.9028V34.8073H68.8057V32.7101H62.4919V39.6039H60.3725V23.6968H70.9028V25.794H62.4919V30.6129H70.9028Z" fill="black"/>
</svg>
